<svg xmlns="http://www.w3.org/2000/svg" version="1.1" xmlns:xlink="http://www.w3.org/1999/xlink" xmlns:svgjs="http://svgjs.dev/svgjs" width="2000" height="1500" viewBox="0 0 2000 1500"><rect width="2000" height="1500" fill="#ffffff"></rect><g transform="matrix(0.75,0,0,0.75,249.090909090909,542.3151553279946)"><svg viewBox="0 0 396 109" data-background-color="#ffffff" preserveAspectRatio="xMidYMid meet" height="550" width="2000" xmlns="http://www.w3.org/2000/svg" xmlns:xlink="http://www.w3.org/1999/xlink"><g id="tight-bounds" transform="matrix(1,0,0,1,0.2400000000000091,0.37914683454204123)"><svg viewBox="0 0 395.52 108.24170633091592" height="108.24170633091592" width="395.52"><g><svg viewBox="0 0 731.4101326858428 200.16454487671228" height="108.24170633091592" width="395.52"><g><rect width="17.96123903163406" height="200.16454487671228" x="270.90994330961695" y="0" fill="#aa9903" opacity="1" stroke-width="0" stroke="transparent" fill-opacity="1" class="rect-yte-0" data-fill-palette-color="primary" rx="1%" id="yte-0" data-palette-color="#aa9903"></rect></g><g transform="matrix(1,0,0,1,335.8901326858428,0.4979217534246487)"><svg viewBox="0 0 395.52 199.168701369863" height="199.168701369863" width="395.52"><g id="textblocktransform"><svg viewBox="0 0 395.52 199.168701369863" height="199.168701369863" width="395.52" id="textblock"><g><svg viewBox="0 0 395.52 199.168701369863" height="199.168701369863" width="395.52"><g transform="matrix(1,0,0,1,0,0)"><svg width="395.52" viewBox="-0.7 -34.3 91.24000000000001 45.949999999999996" height="199.168701369863" data-palette-color="#aa9903"><path d="M-0.7-32L-0.7-33.05-0.4-33.3 8.05-34.2 8.35-33.85Q8.05-30.8 7.85-27.75 7.65-24.7 7.65-21.6L7.65-21.6 7.65-19.95 8.1-19.7Q10.1-21.2 12.3-22.3 14.5-23.4 17.05-23.4L17.05-23.4Q19.4-23.4 20.95-22.28 22.5-21.15 23.3-19.33 24.1-17.5 24.1-15.4L24.1-15.4Q24.1-13.75 23.9-12.1 23.7-10.45 23.15-8.85L23.15-8.85Q22.3-6.2 20.23-4.08 18.15-1.95 15.43-0.73 12.7 0.5 9.85 0.5L9.85 0.5Q8.6 0.5 7.23 0 5.85-0.5 4.93-1.95 4-3.4 4-6.15L4-6.15 4-29.95Q4-30.85 3.73-31.15 3.45-31.45 2.45-31.58 1.45-31.7-0.7-32L-0.7-32ZM7.85-17.35L7.85-17.35Q7.8-16.1 7.73-14.5 7.65-12.9 7.65-11.45L7.65-11.45Q7.65-8.65 7.98-6.48 8.3-4.3 9.35-3.1 10.4-1.9 12.6-1.9L12.6-1.9Q15.25-1.9 16.88-3.3 18.5-4.7 19.23-6.88 19.95-9.05 19.95-11.35L19.95-11.35Q19.95-14.1 19.48-15.73 19-17.35 18.45-18.15L18.45-18.15Q17.95-18.9 17.05-19.6 16.15-20.3 14.7-20.3L14.7-20.3Q12.7-20.3 11-19.48 9.3-18.65 7.85-17.35ZM40.55-5.6L40.55-5.6 41.1-5.6 41.65-5Q40.8-3.7 39.65-2.4 38.5-1.1 37.1-0.28 35.7 0.55 34.05 0.55L34.05 0.55Q32.8 0.55 31.87-0.03 30.95-0.6 30.45-2.13 29.95-3.65 29.95-6.5L29.95-6.5 30.3-25.4Q30.3-26.65 30.27-28.08 30.25-29.5 30.05-30.4L30.05-30.4Q29.9-31.2 29.15-31.48 28.4-31.75 27.45-31.8 26.5-31.85 25.7-31.9L25.7-31.9 25.7-33.05 26-33.3 34.25-34.3 34.55-33.95Q34.4-28.7 34.12-23.45 33.85-18.2 33.85-12.95L33.85-12.95Q33.85-10.5 33.82-8.3 33.8-6.1 34.27-4.73 34.75-3.35 36.25-3.25L36.25-3.25Q37.5-3.25 38.55-4.03 39.6-4.8 40.55-5.6ZM53.25 0.7L53.25 0.7Q49.8 0.7 47.72-0.83 45.65-2.35 44.7-4.75 43.75-7.15 43.55-9.8L43.55-9.8Q43.55-12.4 44.02-15 44.5-17.6 46.3-19.55L46.3-19.55Q48.05-21.5 50.57-22.38 53.1-23.25 55.7-23.25L55.7-23.25Q59.4-23.25 61.55-21.6 63.7-19.95 64.65-17.35 65.59-14.75 65.59-11.95L65.59-11.95Q65.59-9.5 64.97-7.15 64.34-4.8 62.7-2.95L62.7-2.95Q60.95-0.95 58.42-0.13 55.9 0.7 53.25 0.7ZM48.25-15.8L48.25-15.8Q48.05-14.85 47.95-13.9 47.85-12.95 47.85-11.95L47.85-11.95Q47.85-10.4 48.15-8.55 48.45-6.7 49.17-5.08 49.9-3.45 51.22-2.4 52.55-1.35 54.6-1.35L54.6-1.35Q56.65-1.35 57.92-2.25 59.2-3.15 59.9-4.6 60.6-6.05 60.87-7.75 61.15-9.45 61.15-11L61.15-11Q61.15-12.55 60.9-14.33 60.65-16.1 59.97-17.7 59.3-19.3 57.97-20.3 56.65-21.3 54.55-21.3L54.55-21.3Q52.55-21.3 50.75-19.95 48.95-18.6 48.25-15.8ZM86.24-2.25L85.79-2.6Q83.84-1.5 81.72-0.48 79.59 0.55 77.24 0.55L77.24 0.55Q75.19 0.55 73.54-0.68 71.89-1.9 70.94-4.1 69.99-6.3 69.99-9.2L69.99-9.2Q69.99-13.65 71.52-16.8 73.04-19.95 75.64-21.6 78.24-23.25 81.44-23.25L81.44-23.25Q82.99-23.25 84.52-22.88 86.04-22.5 87.29-21.55L87.29-21.55 89.84-23 90.54-22.7Q90.44-21 90.37-19.33 90.29-17.65 90.22-15.6 90.14-13.55 90.12-10.78 90.09-8 90.09-4.1L90.09-4.1Q90.09-2.65 89.92-0.28 89.74 2.1 88.99 4.3L88.99 4.3Q88.39 5.95 87.24 7.18 86.09 8.4 85.34 8.95L85.34 8.95Q83.44 10.4 81.49 11.03 79.54 11.65 77.24 11.65L77.24 11.65Q75.59 11.65 73.89 11.1 72.19 10.55 70.34 8.85L70.34 8.85 72.79 5.75 73.49 5.75Q73.94 6.65 74.79 7.53 75.64 8.4 76.62 9 77.59 9.6 78.49 9.6L78.49 9.6Q81.14 9.6 82.82 8 84.49 6.4 85.32 3.7 86.14 1 86.24-2.25L86.24-2.25ZM86.24-4.95L86.24-4.95 86.24-18.15Q86.14-19.9 84.77-20.73 83.39-21.55 81.79-21.55L81.79-21.55Q79.59-21.55 78.14-20.43 76.69-19.3 75.84-17.53 74.99-15.75 74.64-13.8 74.29-11.85 74.29-10.15L74.29-10.15Q74.29-7.9 75.19-6.2 76.09-4.5 77.42-3.55 78.74-2.6 79.99-2.6L79.99-2.6Q81.14-2.6 82.37-3 83.59-3.4 84.64-3.95 85.69-4.5 86.24-4.95Z" opacity="1" transform="matrix(1,0,0,1,0,0)" fill="#aa9903" class="wordmark-text-0" data-fill-palette-color="primary" id="text-0"></path></svg></g></svg></g></svg></g></svg></g><g transform="matrix(1,0,0,1,0,0.4979217534246487)"><svg viewBox="0 0 223.89099296502516 199.168701369863" height="199.168701369863" width="223.89099296502516"><g><svg xmlns="http://www.w3.org/2000/svg" xmlns:xlink="http://www.w3.org/1999/xlink" version="1.1" x="0" y="0" viewBox="14.222 18.915 69.887 62.169999999999995" enable-background="new 0 0 100 100" xml:space="preserve" height="199.168701369863" width="223.89099296502516" class="icon-icon-0" data-fill-palette-color="accent" id="icon-0"><path d="M24.727 18.915H73.82C74.008 19.003 74.186 19.138 74.383 19.173 79.338 20.065 82.833 23.357 83.835 28.279 84.115 29.658 84.083 31.115 84.085 32.537 84.106 48.719 84.105 64.901 84.109 81.085H14.222V29.419C14.311 29.193 14.443 28.974 14.483 28.74 15.285 23.97 18.735 20.305 23.415 19.26 23.856 19.163 24.29 19.031 24.727 18.915M71.579 43.349H26.188V45.785H71.579zM71.579 50.451H26.188V52.887H71.579zM71.579 71.641H26.188V74.079H71.579zM55.664 57.635H26.188V60.071H55.664zM71.579 65.065H37.962V67.501H71.579zM28.251 29.737L29.203 37.488 30.737 36.645 30.517 34.979 33.078 33.571 34.377 34.642 36.011 33.744 29.956 28.8zM29.998 31.049L30.038 31.026 32.003 32.664 30.327 33.585zM36.353 26.031L37.473 28.069 35.436 29.189 36.107 30.409 38.143 29.288 39.258 31.315 40.468 30.65 39.354 28.622 41.391 27.502 40.72 26.281 38.682 27.401 37.562 25.364z" fill="#e13e09" data-fill-palette-color="accent"></path></svg></g></svg></g></svg></g><defs></defs></svg><rect width="395.52" height="108.24170633091592" fill="none" stroke="none" visibility="hidden"></rect></g></svg></g></svg>